<svg xmlns="http://www.w3.org/2000/svg" viewBox="0 0 32 32" fill="none">
  <rect width="32" height="32" rx="8" fill="url(#gradient)"/>
  <path d="M16 18c2.21 0 4-1.79 4-4V8c0-2.21-1.79-4-4-4s-4 1.79-4 4v6c0 2.21 1.79 4 4 4z" fill="white"/>
  <path d="M22 14c0 3.31-2.69 6-6 6s-6-2.69-6-6H8c0 4.08 3.05 7.44 7 7.93V26h2v-4.07c3.95-.49 7-3.85 7-7.93h-2z" fill="white"/>
  <defs>
    <linearGradient id="gradient" x1="0" y1="0" x2="32" y2="32" gradientUnits="userSpaceOnUse">
      <stop stop-color="#F59E0B"/>
      <stop offset="1" stop-color="#EA580C"/>
    </linearGradient>
  </defs>
</svg>
